<mxfile host="app.diagrams.net" modified="2023-10-09T11:19:12.903Z" agent="Mozilla/5.0 (Windows NT 10.0; Win64; x64) AppleWebKit/537.36 (KHTML, like Gecko) Chrome/117.0.0.0 Safari/537.36" etag="V66QDDeG011pdMIdovpr" version="21.7.4" type="device">
  <diagram name="1 oldal" id="VJJC-7EsSvoZzOE1ZvFG">
    <mxGraphModel dx="1434" dy="790" grid="1" gridSize="10" guides="1" tooltips="1" connect="1" arrows="1" fold="1" page="1" pageScale="1" pageWidth="827" pageHeight="1169" math="0" shadow="0">
      <root>
        <mxCell id="0" />
        <mxCell id="1" parent="0" />
        <mxCell id="HBoZByU3yEoarjeNMYST-1" value="Könyv" style="rounded=0;whiteSpace=wrap;html=1;" vertex="1" parent="1">
          <mxGeometry x="324" y="310" width="120" height="60" as="geometry" />
        </mxCell>
        <mxCell id="HBoZByU3yEoarjeNMYST-2" value="&lt;u&gt;id&lt;/u&gt;" style="ellipse;whiteSpace=wrap;html=1;" vertex="1" parent="1">
          <mxGeometry x="360" y="240" width="60" height="30" as="geometry" />
        </mxCell>
        <mxCell id="HBoZByU3yEoarjeNMYST-4" value="cím" style="ellipse;whiteSpace=wrap;html=1;" vertex="1" parent="1">
          <mxGeometry x="280" y="250" width="60" height="30" as="geometry" />
        </mxCell>
        <mxCell id="HBoZByU3yEoarjeNMYST-5" value="" style="endArrow=none;html=1;rounded=0;entryX=0.5;entryY=0;entryDx=0;entryDy=0;exitX=0.5;exitY=1;exitDx=0;exitDy=0;" edge="1" parent="1" source="HBoZByU3yEoarjeNMYST-2" target="HBoZByU3yEoarjeNMYST-1">
          <mxGeometry width="50" height="50" relative="1" as="geometry">
            <mxPoint x="390" y="130" as="sourcePoint" />
            <mxPoint x="440" y="80" as="targetPoint" />
          </mxGeometry>
        </mxCell>
        <mxCell id="HBoZByU3yEoarjeNMYST-6" value="" style="endArrow=none;html=1;rounded=0;entryX=0.092;entryY=0.017;entryDx=0;entryDy=0;exitX=1;exitY=1;exitDx=0;exitDy=0;entryPerimeter=0;" edge="1" parent="1" source="HBoZByU3yEoarjeNMYST-4" target="HBoZByU3yEoarjeNMYST-1">
          <mxGeometry width="50" height="50" relative="1" as="geometry">
            <mxPoint x="394" y="180" as="sourcePoint" />
            <mxPoint x="410" y="210" as="targetPoint" />
          </mxGeometry>
        </mxCell>
        <mxCell id="HBoZByU3yEoarjeNMYST-9" value="Írta" style="rhombus;whiteSpace=wrap;html=1;" vertex="1" parent="1">
          <mxGeometry x="200" y="210" width="60" height="60" as="geometry" />
        </mxCell>
        <mxCell id="HBoZByU3yEoarjeNMYST-10" value="Író" style="rounded=0;whiteSpace=wrap;html=1;" vertex="1" parent="1">
          <mxGeometry x="50" y="220" width="80" height="40" as="geometry" />
        </mxCell>
        <mxCell id="HBoZByU3yEoarjeNMYST-11" value="&lt;u&gt;id&lt;/u&gt;" style="ellipse;whiteSpace=wrap;html=1;" vertex="1" parent="1">
          <mxGeometry x="30" y="170" width="60" height="30" as="geometry" />
        </mxCell>
        <mxCell id="HBoZByU3yEoarjeNMYST-12" value="név" style="ellipse;whiteSpace=wrap;html=1;" vertex="1" parent="1">
          <mxGeometry x="110" y="160" width="60" height="30" as="geometry" />
        </mxCell>
        <mxCell id="HBoZByU3yEoarjeNMYST-13" value="" style="endArrow=none;html=1;rounded=0;entryX=1;entryY=0.5;entryDx=0;entryDy=0;exitX=-0.033;exitY=0.617;exitDx=0;exitDy=0;exitPerimeter=0;" edge="1" parent="1" source="HBoZByU3yEoarjeNMYST-1" target="HBoZByU3yEoarjeNMYST-9">
          <mxGeometry width="50" height="50" relative="1" as="geometry">
            <mxPoint x="390" y="330" as="sourcePoint" />
            <mxPoint x="440" y="280" as="targetPoint" />
            <Array as="points">
              <mxPoint x="260" y="340" />
            </Array>
          </mxGeometry>
        </mxCell>
        <mxCell id="HBoZByU3yEoarjeNMYST-14" value="" style="endArrow=none;html=1;rounded=0;entryX=1;entryY=0.5;entryDx=0;entryDy=0;exitX=0;exitY=0.5;exitDx=0;exitDy=0;" edge="1" parent="1" source="HBoZByU3yEoarjeNMYST-9" target="HBoZByU3yEoarjeNMYST-10">
          <mxGeometry width="50" height="50" relative="1" as="geometry">
            <mxPoint x="346" y="247" as="sourcePoint" />
            <mxPoint x="270" y="250" as="targetPoint" />
          </mxGeometry>
        </mxCell>
        <mxCell id="HBoZByU3yEoarjeNMYST-15" value="" style="endArrow=none;html=1;rounded=0;entryX=0.9;entryY=0.075;entryDx=0;entryDy=0;exitX=0.5;exitY=1;exitDx=0;exitDy=0;entryPerimeter=0;" edge="1" parent="1" source="HBoZByU3yEoarjeNMYST-12" target="HBoZByU3yEoarjeNMYST-10">
          <mxGeometry width="50" height="50" relative="1" as="geometry">
            <mxPoint x="210" y="250" as="sourcePoint" />
            <mxPoint x="140" y="250" as="targetPoint" />
          </mxGeometry>
        </mxCell>
        <mxCell id="HBoZByU3yEoarjeNMYST-16" value="" style="endArrow=none;html=1;rounded=0;entryX=0.25;entryY=0;entryDx=0;entryDy=0;exitX=0.65;exitY=1.033;exitDx=0;exitDy=0;exitPerimeter=0;" edge="1" parent="1" source="HBoZByU3yEoarjeNMYST-11" target="HBoZByU3yEoarjeNMYST-10">
          <mxGeometry width="50" height="50" relative="1" as="geometry">
            <mxPoint x="150" y="200" as="sourcePoint" />
            <mxPoint x="132" y="233" as="targetPoint" />
          </mxGeometry>
        </mxCell>
        <mxCell id="HBoZByU3yEoarjeNMYST-17" value="1" style="text;html=1;align=center;verticalAlign=middle;resizable=0;points=[];autosize=1;strokeColor=none;fillColor=none;" vertex="1" parent="1">
          <mxGeometry x="160" y="210" width="30" height="30" as="geometry" />
        </mxCell>
        <mxCell id="HBoZByU3yEoarjeNMYST-18" value="N" style="text;html=1;align=center;verticalAlign=middle;resizable=0;points=[];autosize=1;strokeColor=none;fillColor=none;" vertex="1" parent="1">
          <mxGeometry x="270" y="300" width="30" height="30" as="geometry" />
        </mxCell>
        <mxCell id="HBoZByU3yEoarjeNMYST-19" value="műfaja" style="rhombus;whiteSpace=wrap;html=1;" vertex="1" parent="1">
          <mxGeometry x="540" y="360" width="70" height="70" as="geometry" />
        </mxCell>
        <mxCell id="HBoZByU3yEoarjeNMYST-20" value="Műfaj" style="rounded=0;whiteSpace=wrap;html=1;" vertex="1" parent="1">
          <mxGeometry x="670" y="380" width="80" height="40" as="geometry" />
        </mxCell>
        <mxCell id="HBoZByU3yEoarjeNMYST-21" value="&lt;u&gt;id&lt;/u&gt;" style="ellipse;whiteSpace=wrap;html=1;" vertex="1" parent="1">
          <mxGeometry x="620" y="300" width="60" height="30" as="geometry" />
        </mxCell>
        <mxCell id="HBoZByU3yEoarjeNMYST-22" value="név" style="ellipse;whiteSpace=wrap;html=1;" vertex="1" parent="1">
          <mxGeometry x="730" y="310" width="60" height="30" as="geometry" />
        </mxCell>
        <mxCell id="HBoZByU3yEoarjeNMYST-24" value="" style="endArrow=none;html=1;rounded=0;entryX=1;entryY=0.5;entryDx=0;entryDy=0;exitX=0;exitY=0.5;exitDx=0;exitDy=0;" edge="1" parent="1" source="HBoZByU3yEoarjeNMYST-19" target="HBoZByU3yEoarjeNMYST-1">
          <mxGeometry width="50" height="50" relative="1" as="geometry">
            <mxPoint x="390" y="330" as="sourcePoint" />
            <mxPoint x="440" y="280" as="targetPoint" />
            <Array as="points">
              <mxPoint x="490" y="395" />
              <mxPoint x="490" y="340" />
            </Array>
          </mxGeometry>
        </mxCell>
        <mxCell id="HBoZByU3yEoarjeNMYST-25" value="" style="endArrow=none;html=1;rounded=0;exitX=0;exitY=0.5;exitDx=0;exitDy=0;entryX=0.857;entryY=0.6;entryDx=0;entryDy=0;entryPerimeter=0;" edge="1" parent="1" source="HBoZByU3yEoarjeNMYST-20" target="HBoZByU3yEoarjeNMYST-19">
          <mxGeometry width="50" height="50" relative="1" as="geometry">
            <mxPoint x="520" y="245" as="sourcePoint" />
            <mxPoint x="580" y="240" as="targetPoint" />
          </mxGeometry>
        </mxCell>
        <mxCell id="HBoZByU3yEoarjeNMYST-26" value="" style="endArrow=none;html=1;rounded=0;exitX=0.5;exitY=1;exitDx=0;exitDy=0;entryX=0.25;entryY=0;entryDx=0;entryDy=0;" edge="1" parent="1" source="HBoZByU3yEoarjeNMYST-21" target="HBoZByU3yEoarjeNMYST-20">
          <mxGeometry width="50" height="50" relative="1" as="geometry">
            <mxPoint x="670" y="245" as="sourcePoint" />
            <mxPoint x="590" y="250" as="targetPoint" />
          </mxGeometry>
        </mxCell>
        <mxCell id="HBoZByU3yEoarjeNMYST-27" value="" style="endArrow=none;html=1;rounded=0;entryX=0.5;entryY=1;entryDx=0;entryDy=0;exitX=1;exitY=0;exitDx=0;exitDy=0;" edge="1" parent="1" source="HBoZByU3yEoarjeNMYST-20" target="HBoZByU3yEoarjeNMYST-22">
          <mxGeometry width="50" height="50" relative="1" as="geometry">
            <mxPoint x="390" y="330" as="sourcePoint" />
            <mxPoint x="440" y="280" as="targetPoint" />
          </mxGeometry>
        </mxCell>
        <mxCell id="HBoZByU3yEoarjeNMYST-28" value="1" style="text;html=1;align=center;verticalAlign=middle;resizable=0;points=[];autosize=1;strokeColor=none;fillColor=none;" vertex="1" parent="1">
          <mxGeometry x="494" y="360" width="30" height="30" as="geometry" />
        </mxCell>
        <mxCell id="HBoZByU3yEoarjeNMYST-29" value="N" style="text;html=1;align=center;verticalAlign=middle;resizable=0;points=[];autosize=1;strokeColor=none;fillColor=none;" vertex="1" parent="1">
          <mxGeometry x="610" y="370" width="30" height="30" as="geometry" />
        </mxCell>
        <mxCell id="HBoZByU3yEoarjeNMYST-34" value="Kiadta" style="rhombus;whiteSpace=wrap;html=1;" vertex="1" parent="1">
          <mxGeometry x="359" y="410" width="80" height="80" as="geometry" />
        </mxCell>
        <mxCell id="HBoZByU3yEoarjeNMYST-35" value="Kiadó" style="rounded=0;whiteSpace=wrap;html=1;" vertex="1" parent="1">
          <mxGeometry x="340" y="540" width="110" height="50" as="geometry" />
        </mxCell>
        <mxCell id="HBoZByU3yEoarjeNMYST-38" value="név" style="ellipse;whiteSpace=wrap;html=1;" vertex="1" parent="1">
          <mxGeometry x="315" y="630" width="60" height="30" as="geometry" />
        </mxCell>
        <mxCell id="HBoZByU3yEoarjeNMYST-39" value="&lt;u&gt;id&lt;/u&gt;" style="ellipse;whiteSpace=wrap;html=1;" vertex="1" parent="1">
          <mxGeometry x="420" y="630" width="60" height="30" as="geometry" />
        </mxCell>
        <mxCell id="HBoZByU3yEoarjeNMYST-41" value="" style="endArrow=none;html=1;rounded=0;entryX=0.625;entryY=1.033;entryDx=0;entryDy=0;entryPerimeter=0;exitX=0.5;exitY=0;exitDx=0;exitDy=0;" edge="1" parent="1" source="HBoZByU3yEoarjeNMYST-34" target="HBoZByU3yEoarjeNMYST-1">
          <mxGeometry width="50" height="50" relative="1" as="geometry">
            <mxPoint x="390" y="330" as="sourcePoint" />
            <mxPoint x="440" y="280" as="targetPoint" />
          </mxGeometry>
        </mxCell>
        <mxCell id="HBoZByU3yEoarjeNMYST-42" value="" style="endArrow=none;html=1;rounded=0;entryX=0.5;entryY=1;entryDx=0;entryDy=0;exitX=0.558;exitY=-0.017;exitDx=0;exitDy=0;exitPerimeter=0;" edge="1" parent="1" source="HBoZByU3yEoarjeNMYST-35" target="HBoZByU3yEoarjeNMYST-34">
          <mxGeometry width="50" height="50" relative="1" as="geometry">
            <mxPoint x="374" y="420" as="sourcePoint" />
            <mxPoint x="387" y="378" as="targetPoint" />
          </mxGeometry>
        </mxCell>
        <mxCell id="HBoZByU3yEoarjeNMYST-43" value="" style="endArrow=none;html=1;rounded=0;entryX=0.167;entryY=1;entryDx=0;entryDy=0;exitX=0.717;exitY=0.033;exitDx=0;exitDy=0;exitPerimeter=0;entryPerimeter=0;" edge="1" parent="1" source="HBoZByU3yEoarjeNMYST-38" target="HBoZByU3yEoarjeNMYST-35">
          <mxGeometry width="50" height="50" relative="1" as="geometry">
            <mxPoint x="377" y="549" as="sourcePoint" />
            <mxPoint x="374" y="500" as="targetPoint" />
          </mxGeometry>
        </mxCell>
        <mxCell id="HBoZByU3yEoarjeNMYST-44" value="" style="endArrow=none;html=1;rounded=0;entryX=0.842;entryY=1.017;entryDx=0;entryDy=0;exitX=0.5;exitY=0;exitDx=0;exitDy=0;entryPerimeter=0;" edge="1" parent="1" source="HBoZByU3yEoarjeNMYST-39" target="HBoZByU3yEoarjeNMYST-35">
          <mxGeometry width="50" height="50" relative="1" as="geometry">
            <mxPoint x="308" y="641" as="sourcePoint" />
            <mxPoint x="330" y="610" as="targetPoint" />
          </mxGeometry>
        </mxCell>
        <mxCell id="HBoZByU3yEoarjeNMYST-46" value="N" style="text;html=1;align=center;verticalAlign=middle;resizable=0;points=[];autosize=1;strokeColor=none;fillColor=none;" vertex="1" parent="1">
          <mxGeometry x="399" y="390" width="30" height="30" as="geometry" />
        </mxCell>
        <mxCell id="HBoZByU3yEoarjeNMYST-47" value="M" style="text;html=1;align=center;verticalAlign=middle;resizable=0;points=[];autosize=1;strokeColor=none;fillColor=none;" vertex="1" parent="1">
          <mxGeometry x="399" y="500" width="30" height="30" as="geometry" />
        </mxCell>
        <mxCell id="HBoZByU3yEoarjeNMYST-48" value="Forditotta" style="rhombus;whiteSpace=wrap;html=1;" vertex="1" parent="1">
          <mxGeometry x="90" y="420" width="80" height="80" as="geometry" />
        </mxCell>
        <mxCell id="HBoZByU3yEoarjeNMYST-51" value="Fordító" style="rounded=0;whiteSpace=wrap;html=1;" vertex="1" parent="1">
          <mxGeometry x="70" y="550" width="110" height="50" as="geometry" />
        </mxCell>
        <mxCell id="HBoZByU3yEoarjeNMYST-52" value="név" style="ellipse;whiteSpace=wrap;html=1;" vertex="1" parent="1">
          <mxGeometry x="40" y="640" width="60" height="30" as="geometry" />
        </mxCell>
        <mxCell id="HBoZByU3yEoarjeNMYST-53" value="&lt;u&gt;id&lt;/u&gt;" style="ellipse;whiteSpace=wrap;html=1;" vertex="1" parent="1">
          <mxGeometry x="145" y="640" width="60" height="30" as="geometry" />
        </mxCell>
        <mxCell id="HBoZByU3yEoarjeNMYST-56" value="kiadasi év" style="ellipse;whiteSpace=wrap;html=1;" vertex="1" parent="1">
          <mxGeometry x="235" y="550" width="80" height="30" as="geometry" />
        </mxCell>
        <mxCell id="HBoZByU3yEoarjeNMYST-57" value="" style="endArrow=none;html=1;rounded=0;entryX=0;entryY=0.75;entryDx=0;entryDy=0;exitX=0.5;exitY=0;exitDx=0;exitDy=0;" edge="1" parent="1" source="HBoZByU3yEoarjeNMYST-48" target="HBoZByU3yEoarjeNMYST-1">
          <mxGeometry width="50" height="50" relative="1" as="geometry">
            <mxPoint x="390" y="330" as="sourcePoint" />
            <mxPoint x="440" y="280" as="targetPoint" />
            <Array as="points">
              <mxPoint x="130" y="360" />
            </Array>
          </mxGeometry>
        </mxCell>
        <mxCell id="HBoZByU3yEoarjeNMYST-58" value="" style="endArrow=none;html=1;rounded=0;entryX=0.5;entryY=1;entryDx=0;entryDy=0;exitX=0.564;exitY=0.02;exitDx=0;exitDy=0;exitPerimeter=0;" edge="1" parent="1" source="HBoZByU3yEoarjeNMYST-51" target="HBoZByU3yEoarjeNMYST-48">
          <mxGeometry width="50" height="50" relative="1" as="geometry">
            <mxPoint x="390" y="330" as="sourcePoint" />
            <mxPoint x="440" y="280" as="targetPoint" />
          </mxGeometry>
        </mxCell>
        <mxCell id="HBoZByU3yEoarjeNMYST-59" value="" style="endArrow=none;html=1;rounded=0;entryX=0.667;entryY=-0.167;entryDx=0;entryDy=0;entryPerimeter=0;" edge="1" parent="1" target="HBoZByU3yEoarjeNMYST-52">
          <mxGeometry width="50" height="50" relative="1" as="geometry">
            <mxPoint x="110" y="600" as="sourcePoint" />
            <mxPoint x="140" y="510" as="targetPoint" />
          </mxGeometry>
        </mxCell>
        <mxCell id="HBoZByU3yEoarjeNMYST-60" value="" style="endArrow=none;html=1;rounded=0;entryX=0.317;entryY=-0.067;entryDx=0;entryDy=0;entryPerimeter=0;exitX=0.645;exitY=1.04;exitDx=0;exitDy=0;exitPerimeter=0;" edge="1" parent="1" source="HBoZByU3yEoarjeNMYST-51" target="HBoZByU3yEoarjeNMYST-53">
          <mxGeometry width="50" height="50" relative="1" as="geometry">
            <mxPoint x="120" y="610" as="sourcePoint" />
            <mxPoint x="90" y="645" as="targetPoint" />
          </mxGeometry>
        </mxCell>
        <mxCell id="HBoZByU3yEoarjeNMYST-61" value="" style="endArrow=none;html=1;rounded=0;entryX=0;entryY=0.5;entryDx=0;entryDy=0;exitX=1;exitY=0.5;exitDx=0;exitDy=0;" edge="1" parent="1" source="HBoZByU3yEoarjeNMYST-56" target="HBoZByU3yEoarjeNMYST-35">
          <mxGeometry width="50" height="50" relative="1" as="geometry">
            <mxPoint x="151" y="612" as="sourcePoint" />
            <mxPoint x="174" y="648" as="targetPoint" />
          </mxGeometry>
        </mxCell>
        <mxCell id="HBoZByU3yEoarjeNMYST-62" value="" style="endArrow=none;html=1;rounded=0;exitX=1;exitY=0;exitDx=0;exitDy=0;" edge="1" parent="1" source="HBoZByU3yEoarjeNMYST-1" target="HBoZByU3yEoarjeNMYST-66">
          <mxGeometry width="50" height="50" relative="1" as="geometry">
            <mxPoint x="300" y="575" as="sourcePoint" />
            <mxPoint x="520" y="555" as="targetPoint" />
          </mxGeometry>
        </mxCell>
        <mxCell id="HBoZByU3yEoarjeNMYST-63" value="N" style="text;html=1;align=center;verticalAlign=middle;resizable=0;points=[];autosize=1;strokeColor=none;fillColor=none;" vertex="1" parent="1">
          <mxGeometry x="140" y="330" width="30" height="30" as="geometry" />
        </mxCell>
        <mxCell id="HBoZByU3yEoarjeNMYST-64" value="1" style="text;html=1;align=center;verticalAlign=middle;resizable=0;points=[];autosize=1;strokeColor=none;fillColor=none;" vertex="1" parent="1">
          <mxGeometry x="130" y="510" width="30" height="30" as="geometry" />
        </mxCell>
        <mxCell id="HBoZByU3yEoarjeNMYST-66" value="kötés" style="ellipse;whiteSpace=wrap;html=1;" vertex="1" parent="1">
          <mxGeometry x="450" y="250" width="80" height="30" as="geometry" />
        </mxCell>
        <mxCell id="HBoZByU3yEoarjeNMYST-105" value="&lt;ul&gt;&lt;li&gt;cím&lt;/li&gt;&lt;li&gt;kiadási év&lt;/li&gt;&lt;li&gt;id&lt;/li&gt;&lt;/ul&gt;" style="rounded=0;whiteSpace=wrap;html=1;" vertex="1" parent="1">
          <mxGeometry x="225" y="760" width="120" height="120" as="geometry" />
        </mxCell>
        <mxCell id="HBoZByU3yEoarjeNMYST-106" value="PK:id" style="rounded=0;whiteSpace=wrap;html=1;" vertex="1" parent="1">
          <mxGeometry x="225" y="880" width="120" height="30" as="geometry" />
        </mxCell>
        <mxCell id="HBoZByU3yEoarjeNMYST-110" value="könyv" style="rounded=0;whiteSpace=wrap;html=1;" vertex="1" parent="1">
          <mxGeometry x="225" y="730" width="120" height="30" as="geometry" />
        </mxCell>
        <mxCell id="HBoZByU3yEoarjeNMYST-111" value="&lt;ul&gt;&lt;li&gt;&lt;span style=&quot;background-color: initial;&quot;&gt;név&lt;/span&gt;&lt;br&gt;&lt;/li&gt;&lt;li&gt;&lt;span style=&quot;background-color: initial;&quot;&gt;id&lt;/span&gt;&lt;/li&gt;&lt;/ul&gt;" style="rounded=0;whiteSpace=wrap;html=1;" vertex="1" parent="1">
          <mxGeometry x="40" y="760" width="120" height="120" as="geometry" />
        </mxCell>
        <mxCell id="HBoZByU3yEoarjeNMYST-112" value="PK:id" style="rounded=0;whiteSpace=wrap;html=1;" vertex="1" parent="1">
          <mxGeometry x="40" y="880" width="120" height="30" as="geometry" />
        </mxCell>
        <mxCell id="HBoZByU3yEoarjeNMYST-113" value="író" style="rounded=0;whiteSpace=wrap;html=1;" vertex="1" parent="1">
          <mxGeometry x="40" y="730" width="120" height="30" as="geometry" />
        </mxCell>
        <mxCell id="HBoZByU3yEoarjeNMYST-114" value="&lt;ul&gt;&lt;li&gt;név&lt;/li&gt;&lt;li&gt;id&lt;/li&gt;&lt;li&gt;kiadási év&lt;/li&gt;&lt;/ul&gt;" style="rounded=0;whiteSpace=wrap;html=1;" vertex="1" parent="1">
          <mxGeometry x="420" y="760" width="120" height="120" as="geometry" />
        </mxCell>
        <mxCell id="HBoZByU3yEoarjeNMYST-115" value="PK:id" style="rounded=0;whiteSpace=wrap;html=1;" vertex="1" parent="1">
          <mxGeometry x="420" y="880" width="120" height="30" as="geometry" />
        </mxCell>
        <mxCell id="HBoZByU3yEoarjeNMYST-116" value="kiadó" style="rounded=0;whiteSpace=wrap;html=1;" vertex="1" parent="1">
          <mxGeometry x="420" y="730" width="120" height="30" as="geometry" />
        </mxCell>
        <mxCell id="HBoZByU3yEoarjeNMYST-117" value="&lt;ul&gt;&lt;li&gt;név&lt;/li&gt;&lt;li&gt;id&lt;/li&gt;&lt;/ul&gt;" style="rounded=0;whiteSpace=wrap;html=1;" vertex="1" parent="1">
          <mxGeometry x="610" y="760" width="120" height="120" as="geometry" />
        </mxCell>
        <mxCell id="HBoZByU3yEoarjeNMYST-118" value="PK:id" style="rounded=0;whiteSpace=wrap;html=1;" vertex="1" parent="1">
          <mxGeometry x="610" y="880" width="120" height="30" as="geometry" />
        </mxCell>
        <mxCell id="HBoZByU3yEoarjeNMYST-119" value="fordító" style="rounded=0;whiteSpace=wrap;html=1;" vertex="1" parent="1">
          <mxGeometry x="610" y="730" width="120" height="30" as="geometry" />
        </mxCell>
        <mxCell id="HBoZByU3yEoarjeNMYST-120" value="" style="endArrow=none;html=1;rounded=0;entryX=0;entryY=0.5;entryDx=0;entryDy=0;exitX=1;exitY=0.5;exitDx=0;exitDy=0;" edge="1" parent="1" source="HBoZByU3yEoarjeNMYST-111" target="HBoZByU3yEoarjeNMYST-105">
          <mxGeometry width="50" height="50" relative="1" as="geometry">
            <mxPoint x="390" y="630" as="sourcePoint" />
            <mxPoint x="440" y="580" as="targetPoint" />
          </mxGeometry>
        </mxCell>
        <mxCell id="HBoZByU3yEoarjeNMYST-121" value="" style="endArrow=none;html=1;rounded=0;entryX=0;entryY=0.5;entryDx=0;entryDy=0;exitX=1;exitY=0.5;exitDx=0;exitDy=0;" edge="1" parent="1" source="HBoZByU3yEoarjeNMYST-105" target="HBoZByU3yEoarjeNMYST-114">
          <mxGeometry width="50" height="50" relative="1" as="geometry">
            <mxPoint x="350" y="820" as="sourcePoint" />
            <mxPoint x="235" y="830" as="targetPoint" />
          </mxGeometry>
        </mxCell>
        <mxCell id="HBoZByU3yEoarjeNMYST-122" value="" style="endArrow=none;html=1;rounded=0;entryX=0;entryY=0.5;entryDx=0;entryDy=0;exitX=1;exitY=0.5;exitDx=0;exitDy=0;" edge="1" parent="1" source="HBoZByU3yEoarjeNMYST-114" target="HBoZByU3yEoarjeNMYST-117">
          <mxGeometry width="50" height="50" relative="1" as="geometry">
            <mxPoint x="355" y="830" as="sourcePoint" />
            <mxPoint x="430" y="830" as="targetPoint" />
          </mxGeometry>
        </mxCell>
        <mxCell id="HBoZByU3yEoarjeNMYST-123" value="&lt;ul&gt;&lt;li&gt;&lt;span style=&quot;background-color: initial;&quot;&gt;név&lt;/span&gt;&lt;br&gt;&lt;/li&gt;&lt;li&gt;&lt;span style=&quot;background-color: initial;&quot;&gt;id&lt;/span&gt;&lt;/li&gt;&lt;/ul&gt;" style="rounded=0;whiteSpace=wrap;html=1;" vertex="1" parent="1">
          <mxGeometry x="235" y="990" width="120" height="120" as="geometry" />
        </mxCell>
        <mxCell id="HBoZByU3yEoarjeNMYST-124" value="PK:id" style="rounded=0;whiteSpace=wrap;html=1;" vertex="1" parent="1">
          <mxGeometry x="235" y="1110" width="120" height="30" as="geometry" />
        </mxCell>
        <mxCell id="HBoZByU3yEoarjeNMYST-125" value="műfaj" style="rounded=0;whiteSpace=wrap;html=1;" vertex="1" parent="1">
          <mxGeometry x="235" y="960" width="120" height="30" as="geometry" />
        </mxCell>
        <mxCell id="HBoZByU3yEoarjeNMYST-126" value="" style="endArrow=none;html=1;rounded=0;exitX=0.45;exitY=0.1;exitDx=0;exitDy=0;exitPerimeter=0;" edge="1" parent="1" source="HBoZByU3yEoarjeNMYST-125">
          <mxGeometry width="50" height="50" relative="1" as="geometry">
            <mxPoint x="290" y="950" as="sourcePoint" />
            <mxPoint x="285" y="910" as="targetPoint" />
          </mxGeometry>
        </mxCell>
      </root>
    </mxGraphModel>
  </diagram>
</mxfile>
